<?xml version="1.0" encoding="UTF-8"?>
<!DOCTYPE svg PUBLIC "-//W3C//DTD SVG 1.1//EN" "http://www.w3.org/Graphics/SVG/1.1/DTD/svg11.dtd">
<svg xmlns="http://www.w3.org/2000/svg" version="1.1" width="100px" height="25px" style="shape-rendering:geometricPrecision; text-rendering:geometricPrecision; image-rendering:optimizeQuality; fill-rule:evenodd; clip-rule:evenodd" xmlns:xlink="http://www.w3.org/1999/xlink">
<g><path style="opacity:1" fill="#f7fafa" d="M -0.5,-0.5 C 32.8333,-0.5 66.1667,-0.5 99.5,-0.5C 99.5,7.83333 99.5,16.1667 99.5,24.5C 66.1667,24.5 32.8333,24.5 -0.5,24.5C -0.5,16.1667 -0.5,7.83333 -0.5,-0.5 Z"/></g>
<g><path style="opacity:1" fill="#166b68" d="M 10.5,1.5 C 12.2646,0.538616 14.2646,0.205283 16.5,0.5C 16.9518,4.16295 17.4518,7.82962 18,11.5C 20.1435,7.0256 23.3101,3.5256 27.5,1C 33.5,0.333333 39.5,0.333333 45.5,1C 44.6198,2.35613 44.2865,3.85613 44.5,5.5C 38.8236,5.33391 33.1569,5.50058 27.5,6C 24.4591,9.91226 21.7924,14.0789 19.5,18.5C 17.604,19.4656 15.604,19.7989 13.5,19.5C 12.6948,13.3354 11.6948,7.33545 10.5,1.5 Z"/></g>
<g><path style="opacity:1" fill="#0e6865" d="M 64.5,19.5 C 62.2188,19.9227 60.5521,19.256 59.5,17.5C 59.6984,15.4247 59.8651,13.4247 60,11.5C 56.9113,17.9016 54.2446,17.9016 52,11.5C 51.16,14.2017 50.3267,16.8683 49.5,19.5C 47.5853,19.7845 45.9187,19.4511 44.5,18.5C 45.714,12.5493 46.714,6.54928 47.5,0.5C 49.8568,0.336688 52.1902,0.503354 54.5,1C 55.1197,3.47276 55.7864,5.97276 56.5,8.5C 58.3799,5.90874 60.3799,3.40874 62.5,1C 64.5787,0.192339 66.5787,0.359006 68.5,1.5C 67.0376,7.47938 65.7043,13.4794 64.5,19.5 Z"/></g>
<g><path style="opacity:1" fill="#166b68" d="M 76.5,0.5 C 86.5624,-0.281618 90.0624,4.05172 87,13.5C 82.714,19.4727 77.214,20.9727 70.5,18C 66.4707,10.1126 68.4707,4.27924 76.5,0.5 Z"/></g>
<g><path style="opacity:1" fill="#f4f8f7" d="M 76.5,5.5 C 82.8537,5.60543 84.187,8.43876 80.5,14C 72.7618,14.6478 71.4285,11.8145 76.5,5.5 Z"/></g>
<g><path style="opacity:1" fill="#72a2a0" d="M 29.5,8.5 C 33.6829,7.18894 38.0162,7.18894 42.5,8.5C 42.3764,9.10667 42.0431,9.44001 41.5,9.5C 37.7016,8.51658 33.7016,8.18325 29.5,8.5 Z"/></g>
<g><path style="opacity:1" fill="#156a67" d="M 29.5,8.5 C 33.7016,8.18325 37.7016,8.51658 41.5,9.5C 41.5,10.5 41.5,11.5 41.5,12.5C 38.8333,12.5 36.1667,12.5 33.5,12.5C 33.5,13.5 33.5,14.5 33.5,15.5C 36.5184,15.3354 39.5184,15.502 42.5,16C 41.6634,17.0113 41.33,18.1779 41.5,19.5C 36.8333,19.5 32.1667,19.5 27.5,19.5C 27.9111,15.7785 28.5778,12.1119 29.5,8.5 Z"/></g>
<g><path style="opacity:1" fill="#a1c0bf" d="M 44.5,18.5 C 45.9187,19.4511 47.5853,19.7845 49.5,19.5C 47.6365,20.7928 45.6365,20.7928 43.5,19.5C 43.6236,18.8933 43.9569,18.56 44.5,18.5 Z"/></g>
<g><path style="opacity:1" fill="#9fbfbe" d="M 59.5,17.5 C 60.5521,19.256 62.2188,19.9227 64.5,19.5C 62.7354,20.4614 60.7354,20.7947 58.5,20.5C 58.2627,19.209 58.596,18.209 59.5,17.5 Z"/></g>
</svg>
